#N canvas 821 105 1190 881 12;
#X floatatom 97 489 5 0 0 0 - - -;
#X obj 219 219 OSCroute /isabella;
#X obj 97 373 OSCroute /bola1;
#X obj 136 614 soundfiler;
#X floatatom 136 648 5 0 0 0 - - -;
#X obj 134 714 phasor~;
#X obj 134 745 *~;
#X obj 135 814 *~ 0.1;
#X obj 137 851 dac~;
#X msg 97 582 0;
#X obj 135 680 expr 48000/$f1;
#X obj 134 777 tabread4~ pista1;
#N canvas 0 22 450 278 (subpatch) 0;
#X array pista1 900786 float 2;
#X coords 0 1 900786 -1 200 140 1;
#X restore 410 26 graph;
#X msg 135 584 read -resize Pista1.wav pista1;
#N canvas 0 22 450 278 (subpatch) 0;
#X array pista2 900786 float 2;
#X coords 0 1 900786 -1 200 140 1;
#X restore 635 27 graph;
#N canvas 0 22 450 278 (subpatch) 0;
#X array pista3 900786 float 2;
#X coords 0 1 900786 -1 200 140 1;
#X restore 870 23 graph;
#X obj 219 173 dumpOSC 6070;
#X obj 97 420 unpack f f;
#X obj 101 540 sel 1;
#X floatatom 380 488 5 0 0 0 - - -;
#X obj 419 613 soundfiler;
#X floatatom 419 647 5 0 0 0 - - -;
#X obj 417 713 phasor~;
#X obj 417 744 *~;
#X obj 418 813 *~ 0.1;
#X obj 420 850 dac~;
#X msg 380 581 0;
#X obj 418 679 expr 48000/$f1;
#X obj 417 776 tabread4~ pista1;
#X obj 380 419 unpack f f;
#X obj 384 539 sel 1;
#X floatatom 777 492 5 0 0 0 - - -;
#X obj 816 617 soundfiler;
#X floatatom 816 651 5 0 0 0 - - -;
#X obj 814 717 phasor~;
#X obj 814 748 *~;
#X obj 815 817 *~ 0.1;
#X obj 817 854 dac~;
#X msg 777 585 0;
#X obj 815 683 expr 48000/$f1;
#X obj 814 780 tabread4~ pista1;
#X obj 777 423 unpack f f;
#X obj 781 543 sel 1;
#X obj 380 372 OSCroute /bola2;
#X obj 777 376 OSCroute /bola3;
#X msg 815 587 read -resize Pista1.wav pista3;
#X msg 418 583 read -resize Pista2.wav pista2;
#X text 10 2 Isabella Caldas Rojas;
#X text 11 24 20192;
#X connect 0 0 18 0;
#X connect 1 0 2 0;
#X connect 1 0 43 0;
#X connect 1 0 44 0;
#X connect 2 0 17 0;
#X connect 3 0 4 0;
#X connect 4 0 6 1;
#X connect 4 0 10 0;
#X connect 5 0 6 0;
#X connect 6 0 11 0;
#X connect 7 0 8 0;
#X connect 7 0 8 1;
#X connect 9 0 5 0;
#X connect 10 0 5 0;
#X connect 11 0 7 0;
#X connect 13 0 3 0;
#X connect 16 0 1 0;
#X connect 17 0 0 0;
#X connect 18 0 13 0;
#X connect 18 1 9 0;
#X connect 19 0 30 0;
#X connect 20 0 21 0;
#X connect 21 0 23 1;
#X connect 21 0 27 0;
#X connect 22 0 23 0;
#X connect 23 0 28 0;
#X connect 24 0 25 0;
#X connect 24 0 25 1;
#X connect 26 0 22 0;
#X connect 27 0 22 0;
#X connect 28 0 24 0;
#X connect 29 0 19 0;
#X connect 30 0 46 0;
#X connect 30 1 26 0;
#X connect 31 0 42 0;
#X connect 32 0 33 0;
#X connect 33 0 35 1;
#X connect 33 0 39 0;
#X connect 34 0 35 0;
#X connect 35 0 40 0;
#X connect 36 0 37 0;
#X connect 36 0 37 1;
#X connect 38 0 34 0;
#X connect 39 0 34 0;
#X connect 40 0 36 0;
#X connect 41 0 31 0;
#X connect 42 0 45 0;
#X connect 42 1 38 0;
#X connect 43 0 29 0;
#X connect 44 0 41 0;
#X connect 45 0 32 0;
#X connect 46 0 20 0;
